<svg xmlns="http://www.w3.org/2000/svg" version="1.1" xmlns:xlink="http://www.w3.org/1999/xlink" xmlns:svgjs="http://svgjs.dev/svgjs" width="1000" height="386" viewBox="0 0 1000 386"><g transform="matrix(1,0,0,1,-0.6060606060606233,-0.29404473218355065)"><svg viewBox="0 0 396 153" data-background-color="#0c9633" preserveAspectRatio="xMidYMid meet" height="386" width="1000" xmlns="http://www.w3.org/2000/svg" xmlns:xlink="http://www.w3.org/1999/xlink"><defs></defs><g id="tight-bounds" transform="matrix(1,0,0,1,0.2400000000000091,0.11655140938881914)"><svg viewBox="0 0 395.52 152.76689718122236" height="152.76689718122236" width="395.52"><g><svg viewBox="0 0 395.52 152.76689718122236" height="152.76689718122236" width="395.52"><g transform="matrix(1,0,0,1,0,92.0978420827035)"><svg viewBox="0 0 395.52 60.66905509851887" height="60.66905509851887" width="395.52"><g><svg viewBox="0 0 395.52 60.66905509851887" height="60.66905509851887" width="395.52"><g><svg viewBox="0 0 395.52 34.95996177735308" height="34.95996177735308" width="395.52"><g transform="matrix(1,0,0,1,0,0)"><svg width="395.52" viewBox="1.2999999523162842 -36.5 418.57000732421875 37" height="34.95996177735308" data-palette-color="#ffffff"><path d="M1.3-25L1.3-36 32.1-36 32.1-25 29.1-25 27.5-32.5 19.7-32.5 19.7-3.85 25-2.65 25 0 8.4 0 8.4-2.65 13.7-3.85 13.7-32.5 5.85-32.5 4.3-25 1.3-25ZM71.95-33.35L67.75-32.3 67.75-3.7 71.95-2.65 71.95 0 57.55 0 57.55-2.65 61.75-3.7 61.75-16.8 45.8-16.8 45.8-3.7 50-2.65 50 0 35.6 0 35.6-2.65 39.8-3.7 39.8-32.3 35.6-33.35 35.6-36 50-36 50-33.35 45.8-32.3 45.8-20.2 61.75-20.2 61.75-32.3 57.55-33.35 57.55-36 71.95-36 71.95-33.35ZM98.5-25.1L98.5-11.9 94.95-11.9 94.1-16.75 86.75-16.75 86.75-3.5 100.95-3.5 102.4-11.15 106.3-11.15 106.3 0 76.05 0 76.05-2.65 80.75-3.7 80.75-32.3 76.05-33.35 76.05-36 105.2-36 105.2-25.4 101.6-25.4 100.1-32.6 86.75-32.6 86.75-20.25 94.1-20.25 94.95-25.1 98.5-25.1ZM157.14-18.4L157.14-18.4Q157.14-14.2 155.92-10.35 154.69-6.5 152.14-3.85L152.14-3.85Q150.04-1.65 147.09-0.58 144.14 0.5 140.09 0.5L140.09 0.5Q135.99 0.5 133.04-0.55 130.09-1.6 128.04-3.7L128.04-3.7Q125.84-6 124.54-9.63 123.24-13.25 123.24-17.6L123.24-17.6Q123.24-21.95 124.57-25.78 125.89-29.6 128.24-32.15L128.24-32.15Q130.34-34.4 133.24-35.45 136.14-36.5 140.19-36.5L140.19-36.5Q144.14-36.5 147.14-35.5 150.14-34.5 152.29-32.3L152.29-32.3Q154.84-29.75 155.99-26.1 157.14-22.45 157.14-18.4ZM129.99-18.55L129.99-18.55Q129.99-14.6 130.72-11.53 131.44-8.45 132.69-6.5L132.69-6.5Q133.94-4.65 135.79-3.7 137.64-2.75 140.34-2.75L140.34-2.75Q145.24-2.75 147.69-6.05L147.69-6.05Q148.99-7.85 149.69-10.78 150.39-13.7 150.39-17.7L150.39-17.7Q150.39-21.7 149.69-24.7 148.99-27.7 147.64-29.6L147.64-29.6Q146.34-31.5 144.42-32.4 142.49-33.3 140.04-33.3L140.04-33.3Q137.59-33.3 135.79-32.45 133.99-31.6 132.79-30L132.79-30Q129.99-26.3 129.99-18.55ZM160.79-25L160.79-36 191.59-36 191.59-25 188.59-25 186.99-32.5 179.19-32.5 179.19-3.85 184.49-2.65 184.49 0 167.89 0 167.89-2.65 173.19-3.85 173.19-32.5 165.34-32.5 163.79-25 160.79-25ZM194.24-25L194.24-36 225.04-36 225.04-25 222.04-25 220.44-32.5 212.64-32.5 212.64-3.85 217.94-2.65 217.94 0 201.34 0 201.34-2.65 206.64-3.85 206.64-32.5 198.79-32.5 197.24-25 194.24-25ZM250.73-25.1L250.73-11.9 247.18-11.9 246.33-16.75 238.98-16.75 238.98-3.5 253.18-3.5 254.63-11.15 258.53-11.15 258.53 0 228.28 0 228.28-2.65 232.98-3.7 232.98-32.3 228.28-33.35 228.28-36 257.43-36 257.43-25.4 253.83-25.4 252.33-32.6 238.98-32.6 238.98-20.25 246.33-20.25 247.18-25.1 250.73-25.1ZM288.98-19.1L288.98-19.1Q288.08-18.4 286.93-17.8 285.78-17.2 284.03-16.8L284.03-16.8Q284.38-16.5 284.91-15.85 285.43-15.2 285.93-14.35L285.93-14.35 292.28-3.6 296.73-2.65 296.73 0 285.43 0 285.43-2.65 278.68-15.9 273.43-15.9 273.43-3.7 278.18-2.65 278.18 0 263.23 0 263.23-2.65 267.43-3.7 267.43-32.3 263.23-33.35 263.23-36 281.43-36Q283.83-36 285.66-35.55 287.48-35.1 288.88-34.1L288.88-34.1Q290.73-32.85 291.76-30.78 292.78-28.7 292.78-26.6L292.78-26.6Q292.78-24.5 291.76-22.48 290.73-20.45 288.98-19.1ZM273.43-32.6L273.43-19.3 279.58-19.3Q282.33-19.3 284.13-20.85L284.13-20.85Q285.13-21.7 285.71-23.15 286.28-24.6 286.28-26.3L286.28-26.3Q286.28-27.9 285.71-29.18 285.13-30.45 284.08-31.3L284.08-31.3Q283.23-32 282.11-32.3 280.98-32.6 279.38-32.6L279.38-32.6 273.43-32.6ZM320.53-32.5L320.53-3.5 327.28-3.5Q329.98-3.5 331.9-4.33 333.83-5.15 335.08-6.8L335.08-6.8Q336.48-8.5 337.15-11.23 337.83-13.95 337.83-17.7L337.83-17.7Q337.83-25.05 335.08-28.8L335.08-28.8Q333.78-30.65 331.73-31.58 329.68-32.5 326.78-32.5L326.78-32.5 320.53-32.5ZM310.33-33.35L310.33-36 328.13-36Q335.58-36 339.73-31.8L339.73-31.8Q342.08-29.4 343.33-25.9 344.58-22.4 344.58-18.4L344.58-18.4Q344.58-14.2 343.25-10.53 341.93-6.85 339.58-4.35L339.58-4.35Q335.43 0 327.68 0L327.68 0 310.33 0 310.33-2.65 314.53-3.7 314.53-32.3 310.33-33.35ZM370.67-25.1L370.67-11.9 367.12-11.9 366.27-16.75 358.92-16.75 358.92-3.5 373.12-3.5 374.57-11.15 378.47-11.15 378.47 0 348.22 0 348.22-2.65 352.92-3.7 352.92-32.3 348.22-33.35 348.22-36 377.37-36 377.37-25.4 373.77-25.4 372.27-32.6 358.92-32.6 358.92-20.25 366.27-20.25 367.12-25.1 370.67-25.1ZM383.17-2.65L387.37-3.7 387.37-32.3 383.17-33.35 383.17-36 394.07-36 411.42-9.2 411.42-32.3 407.22-33.35 407.22-36 419.87-36 419.87-33.35 415.67-32.3 415.67 0 410.82 0 391.62-29.1 391.62-3.7 395.82-2.65 395.82 0 383.17 0 383.17-2.65Z" opacity="1" transform="matrix(1,0,0,1,0,0)" fill="#ffffff" class="undefined-text-0" data-fill-palette-color="primary" id="text-0"></path></svg></g></svg></g><g transform="matrix(1,0,0,1,75.54432,43.21316971390348)"><svg viewBox="0 0 244.43135999999998 17.45588538461538" height="17.45588538461538" width="244.43135999999998"><g transform="matrix(1,0,0,1,0,0)"><svg width="244.43135999999998" viewBox="0.30000001192092896 -35 499.1600036621094 35.650001525878906" height="17.45588538461538" data-palette-color="#ffffff"><path d="M59.15-34.3L59.15-31.9 53.05-31.9 41.6 0.65 40.5 0.65 29.65-27.5 18.9 0.65 17.7 0.65 6.3-31.9 0.3-31.9 0.3-34.3 15.85-34.3 15.85-31.9 9.4-31.9 18.55-4.9 29.15-33.5 30.45-33.5 41.15-4.9 50.05-31.9 43.1-31.9 43.1-34.3 59.15-34.3ZM88.6-2.35L93.75-2.35 93.75 0 81.1 0 81.1-2.35 85.85-2.35 85.85-14.65Q85.85-18.15 84.35-19.95 82.85-21.75 79.85-21.75L79.85-21.75Q77.35-21.75 74.6-20.08 71.85-18.4 69.2-15.5L69.2-15.5 69.2-2.35 73.9-2.35 73.9 0 60.65 0 60.65-2.35 66.45-2.35 66.45-32 60.65-32 60.65-34.3 69.2-34.3 69.2-17.85Q72.05-20.9 74.85-22.55 77.65-24.2 80.75-24.2L80.75-24.2Q84.45-24.2 86.52-21.85 88.6-19.5 88.6-14.9L88.6-14.9 88.6-2.35ZM118.25-5.15L119.55-3.35Q117.4-1.45 115-0.4 112.59 0.65 109.55 0.65L109.55 0.65Q106.34 0.65 103.5-0.73 100.65-2.1 98.9-4.75 97.15-7.4 97.15-11.05L97.15-11.05Q97.15-15.15 99-18.13 100.84-21.1 103.75-22.63 106.65-24.15 109.8-24.15L109.8-24.15Q112.5-24.15 114.67-23.2 116.84-22.25 118.09-20.6 119.34-18.95 119.34-16.85L119.34-16.85Q119.34-14.7 118.02-13.2 116.7-11.7 114.52-10.93 112.34-10.15 109.9-10.15L109.9-10.15Q107.34-10.15 104.95-10.73 102.55-11.3 99.84-12.3L99.84-12.3Q99.8-11.9 99.8-11.1L99.8-11.1Q99.8-8.35 101.12-6.23 102.45-4.1 104.67-2.93 106.9-1.75 109.4-1.75L109.4-1.75Q112.2-1.75 114.27-2.63 116.34-3.5 118.25-5.15L118.25-5.15ZM109.9-21.85Q106.7-21.85 103.9-19.78 101.09-17.7 100.15-14.1L100.15-14.1Q105.09-12.35 109.55-12.35L109.55-12.35Q112.4-12.35 114.5-13.53 116.59-14.7 116.59-16.85L116.59-16.85Q116.59-19.1 114.75-20.48 112.9-21.85 109.9-21.85L109.9-21.85ZM144.54-24.2L146.04-24.2 146.04-14.9 143.49-14.9 143.49-21.55Q140.59-21.5 137.89-19.8 135.19-18.1 132.24-14.85L132.24-14.85 132.24-2.35 138.09-2.35 138.09 0 123.69 0 123.69-2.35 129.49-2.35 129.49-21.2 123.69-21.2 123.69-23.55 132.24-23.55 132.24-17.2Q135.19-20.55 138.22-22.38 141.24-24.2 144.54-24.2L144.54-24.2ZM172.09-5.15L173.39-3.35Q171.24-1.45 168.84-0.4 166.44 0.65 163.39 0.65L163.39 0.65Q160.19 0.65 157.34-0.73 154.49-2.1 152.74-4.75 150.99-7.4 150.99-11.05L150.99-11.05Q150.99-15.15 152.84-18.13 154.69-21.1 157.59-22.63 160.49-24.15 163.64-24.15L163.64-24.15Q166.34-24.15 168.52-23.2 170.69-22.25 171.94-20.6 173.19-18.95 173.19-16.85L173.19-16.85Q173.19-14.7 171.87-13.2 170.54-11.7 168.37-10.93 166.19-10.15 163.74-10.15L163.74-10.15Q161.19-10.15 158.79-10.73 156.39-11.3 153.69-12.3L153.69-12.3Q153.64-11.9 153.64-11.1L153.64-11.1Q153.64-8.35 154.97-6.23 156.29-4.1 158.52-2.93 160.74-1.75 163.24-1.75L163.24-1.75Q166.04-1.75 168.12-2.63 170.19-3.5 172.09-5.15L172.09-5.15ZM163.74-21.85Q160.54-21.85 157.74-19.78 154.94-17.7 153.99-14.1L153.99-14.1Q158.94-12.35 163.39-12.35L163.39-12.35Q166.24-12.35 168.34-13.53 170.44-14.7 170.44-16.85L170.44-16.85Q170.44-19.1 168.59-20.48 166.74-21.85 163.74-21.85L163.74-21.85ZM210.69 0.65Q205.94 0.65 202.04-1.53 198.14-3.7 195.89-7.75 193.64-11.8 193.64-17.15L193.64-17.15Q193.64-22.55 195.89-26.6 198.14-30.65 202.04-32.83 205.94-35 210.69-35L210.69-35Q215.44-35 219.31-32.83 223.19-30.65 225.46-26.6 227.74-22.55 227.74-17.15L227.74-17.15Q227.74-11.8 225.46-7.75 223.19-3.7 219.29-1.53 215.39 0.65 210.69 0.65L210.69 0.65ZM210.69-1.8Q214.69-1.8 217.89-3.7 221.09-5.6 222.94-9.08 224.79-12.55 224.79-17.15L224.79-17.15Q224.79-21.75 222.94-25.25 221.09-28.75 217.89-30.65 214.69-32.55 210.69-32.55L210.69-32.55Q206.64-32.55 203.39-30.65 200.14-28.75 198.31-25.28 196.49-21.8 196.49-17.15L196.49-17.15Q196.49-12.55 198.31-9.08 200.14-5.6 203.39-3.7 206.64-1.8 210.69-1.8L210.69-1.8ZM251.23-3.6L252.28-1.4Q250.38-0.4 248.76 0.13 247.13 0.65 245.08 0.65L245.08 0.65Q241.78 0.65 239.71-1.43 237.63-3.5 237.63-7.7L237.63-7.7 237.63-21.2 231.88-21.2 231.88-23.55 237.63-23.55 237.63-30.1 240.38-30.1 240.38-23.55 249.13-23.55 249.13-21.2 240.38-21.2 240.38-7.6Q240.38-4.5 241.81-3.18 243.23-1.85 245.33-1.85L245.33-1.85Q248.28-1.85 251.23-3.6L251.23-3.6ZM272.38-3.6L273.43-1.4Q271.53-0.4 269.91 0.13 268.28 0.65 266.23 0.65L266.23 0.65Q262.93 0.65 260.86-1.43 258.78-3.5 258.78-7.7L258.78-7.7 258.78-21.2 253.03-21.2 253.03-23.55 258.78-23.55 258.78-30.1 261.53-30.1 261.53-23.55 270.28-23.55 270.28-21.2 261.53-21.2 261.53-7.6Q261.53-4.5 262.96-3.18 264.38-1.85 266.48-1.85L266.48-1.85Q269.43-1.85 272.38-3.6L272.38-3.6ZM297.18-5.15L298.48-3.35Q296.33-1.45 293.93-0.4 291.53 0.65 288.48 0.65L288.48 0.65Q285.28 0.65 282.43-0.73 279.58-2.1 277.83-4.75 276.08-7.4 276.08-11.05L276.08-11.05Q276.08-15.15 277.93-18.13 279.78-21.1 282.68-22.63 285.58-24.15 288.73-24.15L288.73-24.15Q291.43-24.15 293.6-23.2 295.78-22.25 297.03-20.6 298.28-18.95 298.28-16.85L298.28-16.85Q298.28-14.7 296.95-13.2 295.63-11.7 293.45-10.93 291.28-10.15 288.83-10.15L288.83-10.15Q286.28-10.15 283.88-10.73 281.48-11.3 278.78-12.3L278.78-12.3Q278.73-11.9 278.73-11.1L278.73-11.1Q278.73-8.35 280.05-6.23 281.38-4.1 283.6-2.93 285.83-1.75 288.33-1.75L288.33-1.75Q291.13-1.75 293.2-2.63 295.28-3.5 297.18-5.15L297.18-5.15ZM288.83-21.85Q285.63-21.85 282.83-19.78 280.03-17.7 279.08-14.1L279.08-14.1Q284.03-12.35 288.48-12.35L288.48-12.35Q291.33-12.35 293.43-13.53 295.53-14.7 295.53-16.85L295.53-16.85Q295.53-19.1 293.68-20.48 291.83-21.85 288.83-21.85L288.83-21.85ZM323.48-24.2L324.98-24.2 324.98-14.9 322.43-14.9 322.43-21.55Q319.53-21.5 316.83-19.8 314.13-18.1 311.18-14.85L311.18-14.85 311.18-2.35 317.03-2.35 317.03 0 302.63 0 302.63-2.35 308.43-2.35 308.43-21.2 302.63-21.2 302.63-23.55 311.18-23.55 311.18-17.2Q314.13-20.55 317.15-22.38 320.18-24.2 323.48-24.2L323.48-24.2ZM341.57-13.05Q346.27-11.85 348.87-10.18 351.47-8.5 351.47-5.3L351.47-5.3Q351.47-2.45 349.1-0.9 346.72 0.65 343.37 0.65L343.37 0.65Q340.57 0.65 337.7-0.6 334.82-1.85 332.97-3.75L332.97-3.75 332.97 0 330.67 0 330.67-7.45 331.87-7.65Q333.82-4.95 336.92-3.2 340.02-1.45 343.17-1.45L343.17-1.45Q345.47-1.45 347.07-2.43 348.67-3.4 348.67-5.1L348.67-5.1Q348.67-7.25 346.67-8.4 344.67-9.55 340.67-10.6L340.67-10.6Q336.17-11.7 333.55-13.4 330.92-15.1 330.92-18L330.92-18Q330.92-20.65 333.17-22.43 335.42-24.2 339.02-24.2L339.02-24.2Q341.77-24.2 344.27-23.05 346.77-21.9 348.37-20L348.37-20 348.37-23.55 350.67-23.55 350.67-16.1 349.37-15.95Q347.92-18.85 345.17-20.48 342.42-22.1 339.42-22.1L339.42-22.1Q336.97-22.1 335.35-21.05 333.72-20 333.72-18.25L333.72-18.25Q333.72-16.35 335.75-15.23 337.77-14.1 341.57-13.05L341.57-13.05ZM422.02-31.9L414.97-31.9 414.97-2.4 422.02-2.4 422.02 0 405.62 0 405.62-2.4 412.17-2.4 412.17-26.65Q412.17-27.65 412.37-30.05L412.37-30.05 397.22 0.6 396.07 0.6 380.92-29.85Q381.07-28.15 381.07-26.65L381.07-26.65 381.07-2.4 387.62-2.4 387.62 0 371.37 0 371.37-2.4 378.37-2.4 378.37-31.9 371.37-31.9 371.37-34.3 381.52-34.3 396.72-3.75 411.77-34.3 422.02-34.3 422.02-31.9ZM446.77-5.15L448.07-3.35Q445.92-1.45 443.52-0.4 441.12 0.65 438.07 0.65L438.07 0.65Q434.87 0.65 432.02-0.73 429.17-2.1 427.42-4.75 425.67-7.4 425.67-11.05L425.67-11.05Q425.67-15.15 427.52-18.13 429.37-21.1 432.27-22.63 435.17-24.15 438.32-24.15L438.32-24.15Q441.02-24.15 443.19-23.2 445.37-22.25 446.62-20.6 447.87-18.95 447.87-16.85L447.87-16.85Q447.87-14.7 446.54-13.2 445.22-11.7 443.04-10.93 440.87-10.15 438.42-10.15L438.42-10.15Q435.87-10.15 433.47-10.73 431.07-11.3 428.37-12.3L428.37-12.3Q428.32-11.9 428.32-11.1L428.32-11.1Q428.32-8.35 429.64-6.23 430.97-4.1 433.19-2.93 435.42-1.75 437.92-1.75L437.92-1.75Q440.72-1.75 442.79-2.63 444.87-3.5 446.77-5.15L446.77-5.15ZM438.42-21.85Q435.22-21.85 432.42-19.78 429.62-17.7 428.67-14.1L428.67-14.1Q433.62-12.35 438.07-12.35L438.07-12.35Q440.92-12.35 443.02-13.53 445.12-14.7 445.12-16.85L445.12-16.85Q445.12-19.1 443.27-20.48 441.42-21.85 438.42-21.85L438.42-21.85ZM474.36-5.15L475.66-3.35Q473.51-1.45 471.11-0.4 468.71 0.65 465.66 0.65L465.66 0.65Q462.46 0.65 459.61-0.73 456.76-2.1 455.01-4.75 453.26-7.4 453.26-11.05L453.26-11.05Q453.26-15.15 455.11-18.13 456.96-21.1 459.86-22.63 462.76-24.15 465.91-24.15L465.91-24.15Q468.61-24.15 470.79-23.2 472.96-22.25 474.21-20.6 475.46-18.95 475.46-16.85L475.46-16.85Q475.46-14.7 474.14-13.2 472.81-11.7 470.64-10.93 468.46-10.15 466.01-10.15L466.01-10.15Q463.46-10.15 461.06-10.73 458.66-11.3 455.96-12.3L455.96-12.3Q455.91-11.9 455.91-11.1L455.91-11.1Q455.91-8.35 457.24-6.23 458.56-4.1 460.79-2.93 463.01-1.75 465.51-1.75L465.51-1.75Q468.31-1.75 470.39-2.63 472.46-3.5 474.36-5.15L474.36-5.15ZM466.01-21.85Q462.81-21.85 460.01-19.78 457.21-17.7 456.26-14.1L456.26-14.1Q461.21-12.35 465.66-12.35L465.66-12.35Q468.51-12.35 470.61-13.53 472.71-14.7 472.71-16.85L472.71-16.85Q472.71-19.1 470.86-20.48 469.01-21.85 466.01-21.85L466.01-21.85ZM498.41-3.6L499.46-1.4Q497.56-0.4 495.94 0.13 494.31 0.65 492.26 0.65L492.26 0.65Q488.96 0.65 486.89-1.43 484.81-3.5 484.81-7.7L484.81-7.7 484.81-21.2 479.06-21.2 479.06-23.55 484.81-23.55 484.81-30.1 487.56-30.1 487.56-23.55 496.31-23.55 496.31-21.2 487.56-21.2 487.56-7.6Q487.56-4.5 488.99-3.18 490.41-1.85 492.51-1.85L492.51-1.85Q495.46-1.85 498.41-3.6L498.41-3.6Z" opacity="1" transform="matrix(1,0,0,1,0,0)" fill="#ffffff" class="undefined-text-1" data-fill-palette-color="secondary" id="text-1"></path></svg></g></svg></g></svg></g></svg></g><g transform="matrix(1,0,0,1,134.20013083206084,0)"><svg viewBox="0 0 127.11973833587832 83.84463414615308" height="83.84463414615308" width="127.11973833587832"><g><svg xmlns="http://www.w3.org/2000/svg" xmlns:xlink="http://www.w3.org/1999/xlink" version="1.1" x="8" y="0" viewBox="14.119600296020508 23.241744995117188 73.34805297851562 55.344268798828125" enable-background="new 0 0 100 100" xml:space="preserve" height="83.84463414615308" width="111.11973833587832" class="icon-icon-0" data-fill-palette-color="accent" id="icon-0"><circle cx="21.448" cy="30.99" r="0.67" fill="#ffffff" data-fill-palette-color="accent"></circle><path d="M80.858 40.635c-2.694-3.265-5.56-3.872-9.877-3.976-8.872-0.215-19.04-0.118-27.301-3.896-5.066-2.317-8.982-6.617-14.217-8.619-6.357-2.431-12.888 0.092-14.083 7.067-0.184 1.075-0.38 1.546-0.768 2.377-1.267 2.712-0.018 3.237 2.932 3.388 0.373 0.019 4.25-0.377 4.063-0.579 5.483 5.956 11.837 10.026 14.329 18.144-0.299-0.971-5.001 1.342-4.549 3.084 0.311-0.017 0.713-0.087 0.979-0.262 0.214 0.579 0.68 0.733 1.045 1.137 0.463-0.494 1.026-1.045 1.467-1.479 0.789 1.07 1.347-0.783 2.416-1.048 1.177 1.848 3.355-1.834 4.172-2.78 5.174 2.39-1.618 2.583-2.813 4.812-0.467 0.871-0.499 2.151 0.563 2.131-0.086 0.699 0.155 1.366 0.716 1.803 0.296-0.549 0.649-1.035 0.77-1.666-0.003-0.003 0.144-0.019 0.142-0.014 0.159 0.146 0.261 0.277 0.398 0.421 1.479-2.371 4.298-3.052 6.923-3.1 1.429-0.026 2.858 0.124 4.27 0.331 0.4 0.059 3.921 0.356 3.998 0.494-0.532-0.946-1.688-0.367-1.28-1.931 1.323-0.38 2.736-0.524 4.133-0.661 3-0.294 5.782 2.428 8.852 1.902 1.354-0.232 2.854-0.642 3.905-1.559 0.979-0.854 1.394-2.067 2.136-3.1 0.764-1.062 1.441-1.245 1.761 0.248 0.663 3.097-3.398 3.696-6.211 4.552-5.243 1.596-10.059 5.271-12.308 10.409-1.358 3.101-2.929 6.874-2.249 10.321 3.056-0.574 3.302-4.958 4.977-7.016 3.983-4.894 8.154-7.081 14.217-7.805 5.373-0.642 10.02-1.149 12.347-6.636C89.133 51.425 85.344 44.275 80.858 40.635zM39.834 50.797c-1.442 0.251-4.228-1.672-5.379-2.472-2.093-1.454-3.611-3.413-5.496-5.146-1.501-1.379-2.682-3.02-4.017-4.543-1.409-1.609-2.558-3.062-4.857-2.82-1.412 0.149-4.342 1.09-5.172-0.647-0.258-0.542 0.19-2.026 0.505-2.453v-0.101c1.042 0.213 2.115 0.404 3.178 0.538 1.455-2.999 3.585-5.029 7.025-5.359-0.134-0.418 0.053-0.972-0.087-1.388 1.439-0.55 1.729-1.032 2.722-0.021 0.601 0.611 0.737 1.755 1.527 2.541 0.801 0.798 1.763 1.601 2.756 2.184 0.882 0.518 2.728 0.728 3.336 1.455 1.189 1.422-1.369 2.993-1.302 4.963 0.1 2.922 2.719 4.515 4.134 6.847C39.564 45.785 42.03 50.415 39.834 50.797zM75.638 40.601c-5.602 0.328-9.597 5.447-12.087 9.902-2.184 3.908-2.651-3.416-2.219-4.959 0.964-3.437 3.882-6.597 7.186-7.92 1.86-0.744 4.386-0.46 6.3-0.049 1.721 0.37 3.864 1.537 4.519 3.29C79.159 40.388 76.107 40.574 75.638 40.601z" fill="#ffffff" data-fill-palette-color="accent"></path><path d="M64.206 58.92c0.671-0.294 1.522-1.105 1.958-0.962-1.058-0.347-1.974-0.444-2.974-0.947-1.033-0.521-2.358-0.828-3.511-0.825-0.736 0.002-1.482 0.086-2.213 0.161-0.489 0.05-2.642 0.084-1.898 1.034 0.269 0.343 0.342 0.115 0.676 0.228 0.526 0.178 0.688 0.9 1.21 1.044 0.64 0.177 0.424-0.574 0.962-0.741 0.351-0.109 1.123-0.166 1.494-0.125-0.114 0.121-0.205 0.289-0.212 0.463 0.301 0.146 0.442 0.434 0.729 0.554 1.147 0.072 2.287 0.337 3.44 0.214C63.973 59.008 64.086 58.972 64.206 58.92z" fill="#ffffff" data-fill-palette-color="accent"></path></svg></g></svg></g><g><rect width="134.20013083206084" height="3.1527254317622555" y="79.69190871439083" x="261.31986916793915" fill="#ffffff" data-fill-palette-color="accent"></rect><rect width="134.20013083206084" height="3.1527254317622555" y="79.69190871439083" x="0" fill="#ffffff" data-fill-palette-color="accent"></rect><rect width="134.20013083206084" height="3.1527254317622555" y="73.38645785086632" x="261.31986916793915" fill="#ffffff" data-fill-palette-color="accent"></rect><rect width="134.20013083206084" height="3.1527254317622555" y="73.38645785086632" x="0" fill="#ffffff" data-fill-palette-color="accent"></rect></g></svg></g></svg><rect width="395.52" height="152.76689718122236" fill="none" stroke="none" visibility="hidden"></rect></g></svg></g></svg>